<svg width="5220" height="571" viewBox="0 0 5220 571" fill="none" xmlns="http://www.w3.org/2000/svg">
<rect width="5220" height="571" rx="285.5" fill="#171717"/>
<g filter="url(#filter0_d_795_263)">
<path fill-rule="evenodd" clip-rule="evenodd" d="M3474.12 176.01V281.614L3532.83 281.614C3561.48 281.614 3585.09 258.186 3585.09 228.812C3585.09 199.438 3561.48 176.01 3532.83 176.01L3474.12 176.01ZM3398.12 319.614V138.01C3398.12 117.024 3415.13 100.01 3436.12 100.01L3532.83 100.01C3603.88 100.01 3661.09 157.89 3661.09 228.812C3661.09 299.734 3603.88 357.614 3532.83 357.614L3469.43 357.614C3452.48 424.918 3391.55 474.742 3318.99 474.742C3233.31 474.742 3163.86 405.289 3163.86 319.614V138.01C3163.86 117.024 3180.87 100.01 3201.86 100.01C3222.85 100.01 3239.86 117.024 3239.86 138.01V319.614C3239.86 363.315 3275.29 398.742 3318.99 398.742C3362.69 398.742 3398.12 363.315 3398.12 319.614Z" fill="url(#paint0_linear_795_263)"/>
<path fill-rule="evenodd" clip-rule="evenodd" d="M1862.46 99.0002C1883.45 99.0002 1900.46 116.013 1900.46 137V437C1900.46 457.987 1883.45 475 1862.46 475C1841.48 475 1824.46 457.987 1824.46 437L1824.46 137C1824.46 116.013 1841.48 99.0002 1862.46 99.0002Z" fill="url(#paint1_linear_795_263)"/>
<path fill-rule="evenodd" clip-rule="evenodd" d="M2746.46 105.941C2763.61 118.033 2767.72 141.74 2755.63 158.894L2657.03 298.765V437C2657.03 457.987 2640.02 475 2619.03 475C2598.04 475 2581.03 457.987 2581.03 437V298.07L2482.92 158.894C2470.83 141.741 2474.93 118.033 2492.09 105.942C2509.24 93.8497 2532.95 97.9527 2545.04 115.106L2619.27 220.416L2693.51 115.107C2705.6 97.9531 2729.31 93.8496 2746.46 105.941Z" fill="url(#paint2_linear_795_263)"/>
<path fill-rule="evenodd" clip-rule="evenodd" d="M1578 137C1578 116.013 1595.01 99.0002 1616 99.0002H1751.35C1772.34 99.0002 1789.35 116.013 1789.35 137C1789.35 157.987 1772.34 175 1751.35 175H1654L1654 248.495H1751.35C1772.34 248.495 1789.35 265.508 1789.35 286.495C1789.35 307.482 1772.34 324.495 1751.35 324.495H1654V437C1654 457.987 1636.99 475 1616 475C1595.01 475 1578 457.987 1578 437L1578 137Z" fill="url(#paint3_linear_795_263)"/>
<path fill-rule="evenodd" clip-rule="evenodd" d="M1935.58 137C1935.58 116.013 1952.59 99.0002 1973.58 99.0002H2108.93C2129.92 99.0002 2146.93 116.013 2146.93 137C2146.93 157.987 2129.92 175 2108.93 175H2011.58V248.495H2108.93C2129.92 248.495 2146.93 265.508 2146.93 286.495C2146.93 307.482 2129.92 324.495 2108.93 324.495H2011.58V399H2108.93C2129.92 399 2146.93 416.013 2146.93 437C2146.93 457.987 2129.92 475 2108.93 475H1973.58C1963.5 475 1953.83 470.997 1946.71 463.87C1939.58 456.744 1935.58 447.078 1935.58 437V137Z" fill="url(#paint4_linear_795_263)"/>
<path fill-rule="evenodd" clip-rule="evenodd" d="M2182.04 137C2182.04 116.013 2199.05 99.0002 2220.04 99.0002H2328.12C2390.39 99.0002 2440.87 149.479 2440.87 211.748C2440.87 263.907 2405.45 307.794 2357.35 320.669L2432.37 413.045C2445.6 429.337 2443.12 453.269 2426.82 466.499C2410.53 479.729 2386.6 477.247 2373.37 460.955L2262.55 324.495H2258.04V437C2258.04 457.987 2241.03 475 2220.04 475C2199.05 475 2182.04 457.987 2182.04 437V137ZM2258.04 248.495V175H2328.12C2348.42 175 2364.87 191.453 2364.87 211.748C2364.87 232.043 2348.42 248.495 2328.12 248.495H2258.04Z" fill="url(#paint5_linear_795_263)"/>
<path fill-rule="evenodd" clip-rule="evenodd" d="M2852.97 153.943C2926.2 81.2546 3044.56 80.3724 3117.58 153.189C3132.44 168.008 3132.47 192.068 3117.66 206.929C3102.84 221.79 3078.78 221.824 3063.92 207.006C3020.96 164.172 2950.38 164.139 2906.32 208.075C2884.32 230.01 2873.32 258.528 2873.19 286.977C2873.31 315.442 2884.31 343.979 2906.32 365.926C2950.38 409.861 3020.96 409.829 3063.92 366.995C3078.78 352.176 3102.84 352.21 3117.66 367.071C3132.47 381.932 3132.44 405.992 3117.58 420.811C3044.56 493.627 2926.21 492.746 2852.97 420.061C2852.5 419.635 2852.04 419.194 2851.58 418.739C2815.15 382.416 2797.06 334.645 2797.19 286.962C2797.08 239.304 2815.17 191.565 2851.58 155.261C2852.03 154.808 2852.5 154.368 2852.97 153.943Z" fill="url(#paint6_linear_795_263)"/>
</g>
<defs>
<filter id="filter0_d_795_263" x="1548" y="68.9971" width="2143.09" height="436.004" filterUnits="userSpaceOnUse" color-interpolation-filters="sRGB">
<feFlood flood-opacity="0" result="BackgroundImageFix"/>
<feColorMatrix in="SourceAlpha" type="matrix" values="0 0 0 0 0 0 0 0 0 0 0 0 0 0 0 0 0 0 127 0" result="hardAlpha"/>
<feOffset/>
<feGaussianBlur stdDeviation="15"/>
<feComposite in2="hardAlpha" operator="out"/>
<feColorMatrix type="matrix" values="0 0 0 0 0.937255 0 0 0 0 0.533333 0 0 0 0 0.262745 0 0 0 0.5 0"/>
<feBlend mode="normal" in2="BackgroundImageFix" result="effect1_dropShadow_795_263"/>
<feBlend mode="normal" in="SourceGraphic" in2="effect1_dropShadow_795_263" result="shape"/>
</filter>
<linearGradient id="paint0_linear_795_263" x1="3661" y1="98.9971" x2="3363.33" y2="1039.18" gradientUnits="userSpaceOnUse">
<stop stop-color="#F0B232"/>
<stop offset="1" stop-color="#EF8843"/>
</linearGradient>
<linearGradient id="paint1_linear_795_263" x1="3661" y1="98.9971" x2="3363.33" y2="1039.18" gradientUnits="userSpaceOnUse">
<stop stop-color="#F0B232"/>
<stop offset="1" stop-color="#EF8843"/>
</linearGradient>
<linearGradient id="paint2_linear_795_263" x1="3661" y1="98.9971" x2="3363.33" y2="1039.18" gradientUnits="userSpaceOnUse">
<stop stop-color="#F0B232"/>
<stop offset="1" stop-color="#EF8843"/>
</linearGradient>
<linearGradient id="paint3_linear_795_263" x1="3661" y1="98.9971" x2="3363.33" y2="1039.18" gradientUnits="userSpaceOnUse">
<stop stop-color="#F0B232"/>
<stop offset="1" stop-color="#EF8843"/>
</linearGradient>
<linearGradient id="paint4_linear_795_263" x1="3661" y1="98.9971" x2="3363.33" y2="1039.18" gradientUnits="userSpaceOnUse">
<stop stop-color="#F0B232"/>
<stop offset="1" stop-color="#EF8843"/>
</linearGradient>
<linearGradient id="paint5_linear_795_263" x1="3661" y1="98.9971" x2="3363.33" y2="1039.18" gradientUnits="userSpaceOnUse">
<stop stop-color="#F0B232"/>
<stop offset="1" stop-color="#EF8843"/>
</linearGradient>
<linearGradient id="paint6_linear_795_263" x1="3661" y1="98.9971" x2="3363.33" y2="1039.18" gradientUnits="userSpaceOnUse">
<stop stop-color="#F0B232"/>
<stop offset="1" stop-color="#EF8843"/>
</linearGradient>
</defs>
</svg>
